# xmcd
#
# Track frame offsets: 
#        150
#        24916
#        43914
#        62277
#        74859
#        95024
#        111830
#        137524
#        162647
#        180719
#        200845
#        217644
#        239033
#
# Disc length: 3384 seconds
#
# Revision: 0
# Processed by: cddbd v1.5.2PL0 Copyright (c) Steve Scherf et al.
# Submitted via: ExactAudioCopy v0.95b4
#
DISCID=c30d360d
DTITLE=Roger Ceresi and The Loaded Dice All Starz - Come On, Let's Boogi
DTITLE=e
DYEAR=2007
DGENRE=Swing
TTITLE0=Lil' Dog
TTITLE1=The Truth Hurts
TTITLE2=All Shook Up
TTITLE3=Come On Let's Boogie
TTITLE4=Walkin' On A Tightrope
TTITLE5=Roll 'em Pete
TTITLE6=How Long
TTITLE7=House Of The Blues
TTITLE8=Mellow Together
TTITLE9=Sent For You Yesterday
TTITLE10=Love Don't Love Nobody
TTITLE11=Imitation Of Love
TTITLE12=Baby I'm Gone
EXTD=Come On, Let's Boogie\nRoger Ceresi and The Loaded Dice All Starz\n
EXTD=Live From The Narragansett Cafe\nJamestown, RI\nMarch 9-10, 2007\n
EXTD=\nVocals - Roger Ceresi\nGuitar/Vocals - Rob Nelson (Rob sings tr
EXTD=k 6 and 9\nDrums - Joey Sullilvan\nBass - Ken Grace\nPiano - Matt M
EXTD=cCabe\nTrumpet - John Abrahamsen\nSaxophone - Barry Fleischer\nTr
EXTD=ombone - Carl Querfurth\n\nOver 200 years of combined experience 
EXTD=between 8 musicians brings this All Starz CD to life!\nLive, with
EXTD=all the raw, rockin' and jumpin' spirit, this collection of tunes 
EXTD=will "Kick your Butt"!\nRecorded at one of the oldest and greatest 
EXTD=road houses in America today!!
EXTT0=
EXTT1=
EXTT2=
EXTT3=
EXTT4=
EXTT5=
EXTT6=
EXTT7=
EXTT8=
EXTT9=
EXTT10=
EXTT11=
EXTT12=
PLAYORDER=
